<svg width="49" height="68" viewBox="0 0 49 68" fill="none" xmlns="http://www.w3.org/2000/svg">
<path fill-rule="evenodd" clip-rule="evenodd" d="M13.5811 0H35.2984C42.785 0 48.8795 5.92429 48.8795 13.0366C48.8795 17.1944 46.7944 20.9501 43.5647 23.3477C46.7944 25.7484 48.8795 29.501 48.8795 33.6619C48.8795 40.7711 42.785 46.6954 35.2984 46.6954C32.2481 46.6954 29.4298 45.7147 27.1622 44.0689V54.2841C27.1622 61.3964 21.0708 67.3207 13.5811 67.3207C6.09447 67.3207 0 61.3964 0 54.2841C0 50.1263 2.08507 46.3736 5.31484 43.973C2.08507 41.5723 0 37.8198 0 33.6619C0 29.501 2.08507 25.7484 5.31484 23.3477C2.08507 20.9501 0 17.1944 0 13.0366C0 5.92429 6.09447 0 13.5811 0ZM21.7173 46.6954H13.5811C9.15718 46.6954 5.44479 50.0829 5.44479 54.2841C5.44479 58.4884 9.15718 61.8728 13.5811 61.8728C18.0081 61.8728 21.7173 58.4884 21.7173 54.2841V46.6954ZM27.1622 33.6619C27.1622 29.4577 30.8714 26.0701 35.2984 26.0701C39.7223 26.0701 43.4347 29.4577 43.4347 33.6619C43.4347 37.8631 39.7223 41.2506 35.2984 41.2506C30.8714 41.2506 27.1622 37.8631 27.1622 33.6619ZM13.479 26.0732C9.09838 26.1227 5.44479 29.4917 5.44479 33.6619C5.44479 37.8631 9.15718 41.2506 13.5811 41.2506H21.7173V26.0701H13.5811L13.479 26.0732ZM21.7173 20.6253V5.44786H13.5811C9.15718 5.44786 5.44479 8.83231 5.44479 13.0366C5.44479 17.2408 9.15718 20.6253 13.5811 20.6253H21.7173ZM27.1622 20.6253H35.2984C39.7223 20.6253 43.4347 17.2408 43.4347 13.0366C43.4347 8.83231 39.7223 5.44786 35.2984 5.44786H27.1622V20.6253Z" fill="#F5F5F5"/>
</svg>
