<svg width="49" height="47" viewBox="0 0 49 47" fill="none" xmlns="http://www.w3.org/2000/svg">
<path d="M0 5.4596C0 3.87707 0.551818 2.57152 1.65541 1.54293C2.75899 0.514294 4.19371 0 5.95946 0C7.69371 0 9.09683 0.506366 10.1689 1.51919C11.2725 2.56364 11.8243 3.92455 11.8243 5.60202C11.8243 7.12121 11.2883 8.38717 10.2162 9.4C9.11263 10.4444 7.66216 10.9667 5.86486 10.9667H5.81757C4.08332 10.9667 2.6802 10.4444 1.60811 9.4C0.53602 8.35556 0 7.04207 0 5.4596ZM0.614865 47V15.2869H11.1149V47H0.614865ZM16.9324 47H27.4324V29.2919C27.4324 28.1841 27.5586 27.3296 27.8108 26.7283C28.2522 25.6522 28.9223 24.7422 29.8209 23.9985C30.7196 23.2547 31.8468 22.8828 33.2027 22.8828C36.7342 22.8828 38.5 25.2724 38.5 30.0515V47H49V28.8172C49 24.133 47.8964 20.5803 45.6892 18.1591C43.482 15.7379 40.5653 14.5273 36.9392 14.5273C32.8716 14.5273 29.7027 16.2838 27.4324 19.797V19.8919H27.3851L27.4324 19.797V15.2869H16.9324C16.9955 16.2996 17.027 19.4488 17.027 24.7343C17.027 30.0198 16.9955 37.4417 16.9324 47Z" fill="#F5F5F5"/>
</svg>
