<svg width="38" height="47" viewBox="0 0 38 47" fill="none" xmlns="http://www.w3.org/2000/svg">
<path d="M37.625 5.49904C37.625 2.4601 35.1649 0 32.126 0H5.49904C2.4601 0 0 2.4601 0 5.49904V40.8087C0 43.8476 2.4601 46.3077 5.49904 46.3077H32.126C35.1649 46.3077 37.625 43.8476 37.625 40.8087V5.49904ZM34.7308 40.8087C34.7308 42.2558 33.5731 43.4135 32.126 43.4135H5.49904C4.05192 43.4135 2.89423 42.2558 2.89423 40.8087V5.49904C2.89423 4.05192 4.05192 2.89423 5.49904 2.89423H32.126C33.5731 2.89423 34.7308 4.05192 34.7308 5.49904V40.8087Z" fill="#F5F5F5"/>
<path d="M9.98521 26.0478H27.0612C27.4953 26.0478 27.9294 25.9031 28.2189 25.4689C28.5083 25.1795 28.653 24.7454 28.5083 24.3112C27.9294 20.8382 25.7588 18.0887 22.8645 16.7862C23.7328 15.7733 24.3117 14.4709 24.3117 12.879C24.3117 9.69538 21.7068 7.09058 18.5232 7.09058C15.3395 7.09058 12.7347 9.69538 12.7347 12.879C12.7347 14.3262 13.3136 15.6286 14.1818 16.7862C11.2876 18.2334 8.97223 20.9829 8.53809 24.3112C8.53809 24.7454 8.53809 25.1795 8.82752 25.4689C9.11694 25.9031 9.55107 26.0478 9.98521 26.0478ZM15.629 13.0237C15.629 11.4319 16.9314 10.1295 18.5232 10.1295C20.115 10.1295 21.4174 11.4319 21.4174 13.0237C21.4174 14.6156 20.115 15.918 18.5232 15.918C16.9314 15.918 15.629 14.6156 15.629 13.0237ZM18.5232 18.8122C21.4174 18.8122 24.0222 20.5488 25.1799 23.1536H11.8665C13.0242 20.5488 15.629 18.8122 18.5232 18.8122ZM30.3895 30.3891H7.23569C6.36742 30.3891 5.78857 30.968 5.78857 31.8363C5.78857 32.7045 6.36742 33.2834 7.23569 33.2834H30.3895C31.2578 33.2834 31.8367 32.7045 31.8367 31.8363C31.8367 30.968 31.2578 30.3891 30.3895 30.3891ZM30.3895 36.1776H7.23569C6.36742 36.1776 5.78857 36.7564 5.78857 37.6247C5.78857 38.493 6.36742 39.0718 7.23569 39.0718H30.3895C31.2578 39.0718 31.8367 38.493 31.8367 37.6247C31.8367 36.7564 31.2578 36.1776 30.3895 36.1776Z" fill="#F5F5F5"/>
</svg>
