<svg width="49" height="35" viewBox="0 0 49 35" fill="none" xmlns="http://www.w3.org/2000/svg">
<path d="M24.5 15.4175L46.865 1.05C45.9658 0.375574 44.874 0.00752684 43.75 0H5.25001C4.12605 0.00752684 3.03417 0.375574 2.13501 1.05L24.5 15.4175Z" fill="#F5F5F5"/>
<path d="M25.445 18.9701L25.1475 19.1101H25.0075C24.8464 19.1821 24.6753 19.2293 24.5 19.2501C24.3547 19.2684 24.2078 19.2684 24.0625 19.2501H23.9225L23.625 19.1101L0.175 3.95508C0.0629617 4.37777 0.00417323 4.81281 0 5.25008V29.7501C0 31.1425 0.553124 32.4778 1.53769 33.4624C2.52226 34.447 3.85761 35.0001 5.25 35.0001H43.75C45.1424 35.0001 46.4777 34.447 47.4623 33.4624C48.4469 32.4778 49 31.1425 49 29.7501V5.25008C48.9958 4.81281 48.937 4.37777 48.825 3.95508L25.445 18.9701Z" fill="#F5F5F5"/>
</svg>
