<svg width="95" height="56" viewBox="0 0 95 56" fill="none" xmlns="http://www.w3.org/2000/svg">
<path d="M47.5 55.4167C20.8644 55.4167 0 43.2448 0 27.7083C0 12.1719 20.8644 0 47.5 0C74.1356 0 95 12.1719 95 27.7083C95 43.2448 74.1356 55.4167 47.5 55.4167ZM47.5 3.95833C23.4927 3.95833 3.95833 14.6102 3.95833 27.7083C3.95833 40.8065 23.4927 51.4583 47.5 51.4583C71.5073 51.4583 91.0417 40.8065 91.0417 27.7083C91.0417 14.6102 71.5073 3.95833 47.5 3.95833Z" fill="#F5F5F5"/>
<path d="M21.7747 43.5419C21.4871 43.5423 21.2028 43.4801 20.9417 43.3595C20.6806 43.2388 20.4489 43.0628 20.2627 42.8435C20.0766 42.6242 19.9405 42.367 19.8639 42.0897C19.7873 41.8125 19.7721 41.5219 19.8193 41.2381L21.1255 33.4006C21.1325 33.3475 21.1417 33.2947 21.1532 33.2423L23.7776 17.4921C23.8536 17.0292 24.0915 16.6084 24.4489 16.3046C24.8063 16.0009 25.26 15.8339 25.7291 15.8336H31.1559C33.3409 15.8336 35.3953 16.7994 36.7926 18.4817C38.1939 20.164 38.7639 22.3608 38.3601 24.5142L37.5922 28.615C37.223 30.5846 36.1771 32.3632 34.6353 33.6433C33.0936 34.9234 31.153 35.6245 29.1491 35.6252H24.7672L23.7222 41.8873C23.6455 42.3488 23.4078 42.7681 23.0513 43.071C22.6948 43.3739 22.2425 43.5407 21.7747 43.5419ZM25.4282 31.6669H29.1491C31.3737 31.6669 33.2895 30.0796 33.7012 27.8867L34.4691 23.7898C34.5603 23.3027 34.5432 22.8015 34.4189 22.3217C34.2946 21.842 34.0663 21.3955 33.7501 21.0139C33.4338 20.6323 33.0375 20.325 32.5892 20.1138C32.1408 19.9026 31.6515 19.7927 31.1559 19.7919H27.4074L25.4282 31.6669ZM62.3476 43.5419C62.06 43.5423 61.7757 43.4801 61.5146 43.3595C61.2535 43.2388 61.0218 43.0628 60.8357 42.8435C60.6495 42.6242 60.5134 42.367 60.4368 42.0897C60.3603 41.8125 60.345 41.5219 60.3922 41.2381L61.6984 33.4006C61.7054 33.3475 61.7147 33.2947 61.7262 33.2423L64.3505 17.4921C64.4265 17.0292 64.6644 16.6084 65.0218 16.3046C65.3792 16.0009 65.8329 15.8339 66.302 15.8336H71.7289C73.9139 15.8336 75.9682 16.7994 77.3655 18.4817C78.7668 20.164 79.3368 22.3608 78.933 24.5142L78.1651 28.615C77.7959 30.5846 76.75 32.3632 75.2082 33.6433C73.6665 34.9234 71.7259 35.6245 69.722 35.6252H65.3401L64.2951 41.8873C64.2184 42.3488 63.9807 42.7681 63.6242 43.071C63.2677 43.3739 62.8154 43.5407 62.3476 43.5419ZM66.0012 31.6669H69.722C71.9466 31.6669 73.8624 30.0796 74.2741 27.8867L75.042 23.7898C75.1332 23.3027 75.1161 22.8015 74.9918 22.3217C74.8675 21.842 74.6392 21.3955 74.323 21.0139C74.0068 20.6323 73.6104 20.325 73.1621 20.1138C72.7138 19.9026 72.2244 19.7927 71.7289 19.7919H67.9803L66.0012 31.6669ZM43.5455 35.6252C43.2579 35.6257 42.9736 35.5634 42.7125 35.4428C42.4514 35.3222 42.2197 35.1461 42.0336 34.9268C41.8474 34.7075 41.7114 34.4503 41.6348 34.1731C41.5582 33.8958 41.5429 33.6052 41.5901 33.3215L45.5484 9.57147C45.6481 9.06664 45.9405 8.62048 46.3636 8.32759C46.7867 8.0347 47.3072 7.91811 47.8148 8.00254C48.3225 8.08697 48.7772 8.36578 49.0827 8.77985C49.3882 9.19393 49.5205 9.71071 49.4514 10.2206L45.493 33.9706C45.4163 34.4321 45.1786 34.8515 44.8221 35.1544C44.4656 35.4573 44.0133 35.6241 43.5455 35.6252Z" fill="#F5F5F5"/>
<path d="M55.4206 35.6251C55.137 35.6256 54.8566 35.5652 54.5983 35.4479C54.3401 35.3306 54.1101 35.1591 53.9239 34.9452C53.7377 34.7312 53.5997 34.4797 53.5192 34.2078C53.4387 33.9358 53.4176 33.6497 53.4573 33.3689L54.8783 23.4018C54.9079 23.1995 54.8935 22.9932 54.8363 22.7969C54.779 22.6006 54.6802 22.419 54.5465 22.2643C54.4128 22.1096 54.2474 21.9854 54.0615 21.9003C53.8757 21.8152 53.6736 21.7711 53.4692 21.771H46.5104C45.9855 21.771 45.4821 21.5624 45.1109 21.1913C44.7398 20.8201 44.5312 20.3167 44.5312 19.7918C44.5312 19.2669 44.7398 18.7635 45.1109 18.3923C45.4821 18.0211 45.9855 17.8126 46.5104 17.8126H53.4692C54.241 17.8127 55.0038 17.9787 55.7058 18.2994C56.4078 18.6201 57.0327 19.088 57.538 19.6714C58.0433 20.2548 58.4172 20.9401 58.6345 21.6807C58.8517 22.4213 58.9072 23.2 58.7971 23.9639L57.376 33.927C57.3085 34.3978 57.0737 34.8285 56.7146 35.1403C56.3556 35.4521 55.8962 35.6242 55.4206 35.6251Z" fill="#F5F5F5"/>
</svg>
