<svg width="625" height="250" viewBox="0 0 625 250" fill="none" xmlns="http://www.w3.org/2000/svg">
<path d="M285.5 21.5097C311.833 29.343 365.188 53.3326 384 69.0097C387 71.5097 395.5 75.0097 406 78.0097C416.5 81.0097 445.5 88.0097 455 96.5097C462.6 103.31 489.833 109.343 502.5 111.51C538 121.676 612.1 144.41 624.5 154.01" stroke="#D0D0D0"/>
<path d="M121.5 64.0097L168.5 83.0097C175.5 84.843 192.8 84.3097 206 67.5097" stroke="#D0D0D0"/>
<path d="M144 56.0097L187 76.0097" stroke="#D0D0D0"/>
<path d="M162.5 48.5097L205 67.5097" stroke="#D0D0D0"/>
<path d="M183.5 41.5097L214 54.5097" stroke="#D0D0D0"/>
<path d="M205 33.5097L222.5 42.0097" stroke="#D0D0D0"/>
<path d="M300.5 41.5097L359.5 79.0097" stroke="#D0D0D0"/>
<path d="M380.5 87.0097C391.333 91.6764 413.9 102.11 417.5 106.51C422 112.01 445.805 126.01 469 126.01C475 126.01 518.5 140.51 525.5 145.51" stroke="#D0D0D0"/>
<path d="M390 85.5097C401.333 88.0097 426.4 95.0097 436 103.01C448 113.01 479 122.01 483.5 120.01C488 118.01 545.5 135.51 551.5 140.51" stroke="#D0D0D0"/>
<path d="M44.5 93.5097L209.5 160.01C229 170.176 270.2 191.31 279 194.51C290 198.51 326.5 204.51 333 208.01C339.5 211.51 386 226.01 399.5 232.01" stroke="#D0D0D0"/>
<path d="M62 86.0097L228 152.51C247.5 161.843 286.83 186.744 301 195.01C307 198.51 320.5 198.51 330 198.51C344.916 198.51 357 199.51 376 208.01C384.5 211.812 416 219.01 421 223.01" stroke="#D0D0D0"/>
<path d="M82 78.5097C101.5 87.343 142.5 105.41 150.5 107.01C160.5 109.01 167.5 114.51 177 112.51C184.6 110.91 196.5 112.843 201.5 114.01C207.5 116.01 220.5 121.91 224.5 129.51C228.5 137.11 243.833 142.676 251 144.51L273.5 154.01C279.167 155.676 291.8 160.71 297 167.51C303.5 176.01 320.734 184.088 323.5 185.01C326.5 186.01 345 187.51 349.5 187.51C353 187.51 368.7 193.41 371.5 195.01C374.3 196.61 403.333 202.343 417.5 205.01C424.667 206.343 439.3 210.11 440.5 214.51" stroke="#D0D0D0"/>
<path d="M101.5 71.0097L147.5 90.5097C154.5 93.843 169.308 99.5668 173.5 98.0097C191 91.5097 186 90.5097 199.5 81.5097C228.967 61.8648 240.062 95.5097 246 100.51C255.5 108.51 257.5 141.51 294.5 133.01C309.802 129.494 354 158.01 363 178.51L389.5 188.51L435.5 197.51C442.833 198.176 458.6 200.71 463 205.51" stroke="#D0D0D0"/>
<path d="M23 101.01C94 129.51 236.5 187.21 238.5 190.01C241 193.51 306 213.01 310.5 213.01C315 213.01 375.5 237.01 379 241.01" stroke="#D0D0D0"/>
<path d="M587.5 149.51L601.5 143.51" stroke="#D0D0D0"/>
<path d="M557 144.01L575.5 134.01" stroke="#D0D0D0"/>
<path d="M494 146.01C499 145.676 509.8 144.11 513 140.51C513.633 139.797 547.5 127.51 551 126.01" stroke="#D0D0D0"/>
<path d="M469.5 137.51C475.5 136.343 487.9 133.61 489.5 132.01C490.5 131.01 513.833 122.676 526 118.51" stroke="#D0D0D0"/>
<path d="M444.5 130.51C451.667 129.843 462 128.51 467 127.01C468.381 126.595 491.333 116.01 503 111.51" stroke="#D0D0D0"/>
<path d="M378.5 90.5097L401 108.01C406.5 112.176 416.573 116.083 420 119.51C420.5 120.01 431 127.01 438 129.01" stroke="#D0D0D0"/>
<path d="M290.5 221.01C301.5 216.676 326.2 207.51 333 207.51C341.5 207.51 381 188.51 390.5 188.51C400 188.51 490.5 150.01 491.5 145.51" stroke="#D0D0D0"/>
<path d="M314.5 230.51C346 218.843 410.2 195.21 415 194.01C421 192.51 438 189.51 453.5 182.51C457.799 180.568 469 176.51 475.5 171.51C480.7 167.51 501 154.01 511 148.01M337 239.01C369.667 225.343 429.975 198.86 435.5 198.01C438.474 197.552 448.709 196.461 460.5 193.117M544.5 141.01C531.5 141.01 502.56 164.51 499.5 169.01C490.656 182.016 474.484 189.151 460.5 193.117M222 42.0098C251 -7.49042 279.168 93.4864 289 100.51C292.5 103.01 300 111.01 313.5 103.01C355 85.5097 371.963 149.473 385.5 163.01C404 181.51 433 192.01 460.5 193.117" stroke="#D0D0D0"/>
<path d="M460 193.01C469 193.01 481.7 197.91 482.5 199.51" stroke="#D0D0D0"/>
<path d="M262.5 1.50966C270.5 -1.4903 301 74.5097 306.5 79.0097C313.079 84.3922 328 88.0097 333 84.0097" stroke="#D0D0D0"/>
<path d="M359 80.0097C372.333 102.176 399.6 147.11 402 149.51C405 152.51 427.5 177.51 452.5 182.51C477.5 187.51 486.5 182.01 502 189.51" stroke="#D0D0D0"/>
<path d="M392.5 113.51C398.5 135.51 457.3 174.91 476.5 170.51C500.5 165.01 518.5 168.01 523.5 174.01" stroke="#D0D0D0"/>
<path d="M362.5 248.509L441.5 214.509C450.167 210.176 480 200.067 480.5 200.009C493.5 198.509 527.156 172.353 543.5 156.009C547.5 152.01 559 146.01 563 146.01M47 126.51L203 71.0097" stroke="#D0D0D0"/>
<path d="M24.5 117.51L220 46.5097" stroke="#D0D0D0"/>
<path d="M1.5 108.51L235 22.5097" stroke="#D0D0D0"/>
<path d="M74.5 137.01L174.5 97.5097C181.667 92.1763 197.8 78.8097 205 68.0097C214 54.5097 224 41.5097 230 30.5097C236 19.5097 251.5 0.509674 262 1.00967C272.5 1.50967 295 34.5097 298.5 38.5097C302 42.5097 316.5 76.5097 323 80.5097C329.5 84.5097 350.5 87.0097 358 80.5097C365.5 74.0097 387.5 98.0097 389.5 106.01C391.5 114.01 394.5 116.01 398.5 119.01C402.5 122.01 407 124.51 411 124.01C415 123.51 421 126.51 430 127.51C437.2 128.31 458.333 134.176 468 137.01L492.5 146.01C502 147.676 521.9 150.01 525.5 146.01C529.1 142.01 544.333 140.676 551.5 140.51C553.667 142.343 559 146.01 563 146.01C568 146.01 587 147.01 589 150.51C590.6 153.31 613.333 154.01 624.5 154.01" stroke="#D0D0D0"/>
<path d="M97.5 146.01L158.5 123.51C167 121.51 186.8 111.01 198 85.0096C199.508 81.5097 205.5 70.0097 206 66.5096" stroke="#D0D0D0"/>
<path d="M122 155.51L182 133.51C186.167 131.176 195.9 123.91 201.5 113.51C208.5 100.51 227 72.5096 241.5 32.0096C253.1 -0.390369 261.5 1.00971 263 1.50974" stroke="#D0D0D0"/>
<path d="M222.5 194.51L276.5 178.51C282.167 176.843 294.2 172.51 297 168.51C300.5 163.51 326 131.01 337.5 104.01C342.609 92.0141 346 89.0097 350.5 84.0097" stroke="#D0D0D0"/>
<path d="M243 202.51C252.167 197.843 274.779 194.184 304.5 195.01C322.5 195.51 339 165.51 344.5 157.01C348 151.601 361.5 128.51 363 126.01C364.5 123.51 371.5 113.01 378.5 109.01L390 108.01L404 115.51C406.667 117.176 412.5 122.31 412.5 123.51C419.333 130.343 434.8 144.01 442 144.01C451 144.01 467.89 155.51 472.5 155.51C473 155.51 492.422 157.529 498.5 156.01C500.5 155.51 519.481 152.019 520.5 151.51C525.5 149.01 543 150.01 544 155.51" stroke="#D0D0D0"/>
<path d="M266 211.51C284.5 201.51 307 206.51 326.5 199.51C340.22 194.584 358.5 179.51 364.5 178.51C370.5 177.51 381 167.01 385 163.01C388.2 159.81 398 152.343 402.5 149.01C405 147.01 411.55 144.01 418 144.01C421 144.01 425.693 144.01 440.5 144.01C448 144.01 462 143.01 469 137.51" stroke="#D0D0D0"/>
<path d="M144 164.01L205.5 142.01C214 139.176 234 126.71 246 99.5097C258 72.3097 265.333 61.5097 267.5 59.5097C271 52.1764 279.7 37.7097 286.5 38.5097C295 39.5097 295.5 38.5097 298.5 38.5097" stroke="#D0D0D0"/>
<path d="M172 175.01L228.5 152.51C241 148.843 266.8 139.91 270 133.51C273.2 127.11 284.333 108.843 289.5 100.51C293.333 93.1764 302.5 78.5097 308.5 78.5097C314.5 78.5097 319.333 78.5097 321 78.5097" stroke="#D0D0D0"/>
<path d="M195 184.01C220 176.01 269.615 158.173 274.5 154.51C280.5 150.01 286.5 145.51 295 132.51C304.307 118.275 310.5 111.51 312.5 105.51C314.5 99.5095 328 82.0097 335.5 84.0097" stroke="#D0D0D0"/>
<path d="M419 118.51C422.833 119.51 432.4 121.31 440 120.51C447.6 119.71 457.5 115.843 461.5 114.01L478 106.01" stroke="#D0D0D0"/>
<path d="M398.5 106.01C400.167 107.176 405.8 108.11 417 106.51C428.2 104.91 434.333 103.51 436 103.01C442 101.176 453.8 97.7097 455 96.5097" stroke="#D0D0D0"/>
<path d="M381 92.5097C383.5 94.1764 390.7 96.9097 399.5 94.5097C408.3 92.1097 414.167 90.843 416 90.5097C420.833 89.1764 430.8 86.3097 432 85.5097" stroke="#D0D0D0"/>
<path d="M369.5 82.5097C371.5 84.0097 376.6 86.9097 381 86.5097C385.4 86.1097 390.5 85.343 392.5 85.0097C395.833 84.0097 403.3 81.2097 406.5 78.0097" stroke="#D0D0D0"/>
<path d="M363 79.5097C366.833 78.6764 376.3 75.3097 383.5 68.5097" stroke="#D0D0D0"/>
<path d="M318 73.5097C324.667 71.1764 338.5 66.1097 340.5 64.5097C342.5 62.9097 354.5 56.343 360 53.5097" stroke="#D0D0D0"/>
<path d="M306.5 52.5097C312.833 50.343 326 44.9097 334 40.5097" stroke="#D0D0D0"/>
<path d="M297.5 36.5097L309.5 30.0097M1 108.51L362.5 249.01" stroke="#D0D0D0"/>
</svg>
