<svg width="61" height="61" viewBox="0 0 61 61" fill="none" xmlns="http://www.w3.org/2000/svg">
<path d="M58.8345 6.40504L46.2686 0.305056C45.8031 0.115537 45.307 0.0121915 44.8046 5.75861e-05H44.5606C43.7679 -0.00442486 42.996 0.252889 42.3646 0.732055L41.9376 1.09805L17.9037 23.0275L7.44219 15.25C6.97092 14.8895 6.38799 14.706 5.7952 14.7315C5.21446 14.7249 4.64725 14.9068 4.1787 15.25L0.823715 18.3C0.560664 18.5326 0.350915 18.8192 0.208793 19.1403C0.0666717 19.4614 -0.00447313 19.8094 0.000217764 20.1605C-0.00104446 20.5155 0.0715077 20.867 0.21327 21.1925C0.355033 21.518 0.562911 21.8106 0.823715 22.0515L9.97368 30.317L0.823715 38.6129C0.566 38.8527 0.360457 39.143 0.21991 39.4657C0.0793631 39.7884 0.00682705 40.1367 0.00682705 40.4887C0.00682705 40.8407 0.0793631 41.1889 0.21991 41.5116C0.360457 41.8343 0.566 42.1246 0.823715 42.3644L4.1787 45.4144C4.68459 45.8569 5.33666 46.096 6.0087 46.0854C6.52489 46.0466 7.02062 45.8673 7.44219 45.5669L17.9037 37.6064L41.9376 59.5359C42.5525 60.1695 43.3757 60.5594 44.2556 60.6338H44.7741C45.2953 60.6416 45.8099 60.5156 46.2686 60.2678L58.8345 54.1679C59.4703 53.8635 60.0093 53.3888 60.3916 52.7966C60.7739 52.2043 60.9845 51.5176 61 50.8129V9.85152C60.9979 9.13192 60.7939 8.42736 60.411 7.81804C60.0282 7.20873 59.4819 6.71915 58.8345 6.40504ZM45.7501 44.1334L27.4501 30.317L45.7501 16.5005V44.1334Z" fill="#F5F5F5"/>
</svg>
