<svg width="94" height="91" viewBox="0 0 94 91" fill="none" xmlns="http://www.w3.org/2000/svg">
<path d="M17.1933 0.282471H76.8069C85.8451 0.282471 93.1526 7.59016 93.1526 16.6286V73.9363C93.1526 82.9748 85.8451 90.2825 76.8069 90.2825H17.1933C8.15513 90.2825 0.847656 82.9748 0.847656 73.9363V16.6286C0.847656 7.59016 8.15513 0.282471 17.1933 0.282471Z" fill="#2C342C"/>
<path d="M37.9307 54.1278H23.6234L20.7004 63.2047C20.6235 63.5509 20.3158 63.7816 19.9697 63.7432H12.7391C12.3161 63.7432 12.2007 63.5124 12.3161 63.0509L24.7003 27.5509C24.8157 27.1662 24.9311 26.8201 25.0849 26.3585C25.2387 25.5509 25.3157 24.7047 25.3157 23.8585C25.2772 23.6662 25.431 23.4739 25.6233 23.4355H35.5846C35.8538 23.4355 36.0461 23.5509 36.0846 23.7432L50.1226 63.1662C50.238 63.5893 50.1226 63.7816 49.738 63.7816H41.6998C41.4305 63.8201 41.1613 63.6278 41.0844 63.3586L37.9307 54.1278ZM25.8541 46.4739H35.623C35.3923 45.6662 35.0846 44.7047 34.7384 43.7047C34.3923 42.6662 34.0462 41.5509 33.7 40.397C33.3154 39.2047 32.9693 38.0509 32.5847 36.8585C32.2001 35.6662 31.8539 34.5509 31.5462 33.4355C31.2386 32.3585 30.9693 31.3585 30.7001 30.4355H30.6232C30.277 32.0893 29.854 33.7432 29.3155 35.397C28.7386 37.2432 28.1617 39.1662 27.5464 41.0893C27.0464 43.0509 26.431 44.8585 25.8541 46.4739ZM72.9296 50.5893H60.7376C60.8915 51.7816 61.2761 52.9739 61.9299 54.0124C62.6222 55.0509 63.5837 55.8585 64.7375 56.3201C66.2759 56.9739 67.9682 57.3201 69.6604 57.2816C71.0066 57.2432 72.3527 57.1278 73.6603 56.8586C74.8526 56.7047 76.0064 56.397 77.0833 55.9739C77.2756 55.8201 77.391 55.897 77.391 56.2816V62.1662C77.391 62.3201 77.3525 62.4739 77.3141 62.6278C77.2371 62.7432 77.1602 62.8201 77.0448 62.897C75.8141 63.4355 74.5449 63.8201 73.1988 64.0509C71.3912 64.397 69.5835 64.5509 67.7374 64.5124C64.8144 64.5124 62.353 64.0509 60.353 63.1662C58.4685 62.3586 56.8147 61.0893 55.507 59.5124C54.2763 58.0124 53.3917 56.3201 52.8533 54.4739C52.3148 52.6662 52.0456 50.7816 52.0456 48.8586C52.0456 46.7816 52.3533 44.7432 53.0071 42.7432C53.6225 40.8201 54.584 39.0509 55.8916 37.4739C57.1608 35.9355 58.7377 34.7047 60.5453 33.8201C62.353 32.9355 64.5068 32.6278 66.9682 32.6278C69.0066 32.5893 71.045 32.9739 72.9296 33.8201C74.5065 34.5124 75.891 35.5509 76.9679 36.897C77.9679 38.2047 78.7756 39.6662 79.2755 41.2816C79.7755 42.8201 80.0063 44.397 80.0063 45.9739C80.0063 46.897 79.9678 47.7047 79.9294 48.4355C79.8524 49.1662 79.814 49.7047 79.7755 50.0509C79.7371 50.3201 79.5063 50.5509 79.2371 50.5509C79.0063 50.5509 78.5833 50.5893 77.9679 50.6278C77.3525 50.7047 76.6218 50.7432 75.7372 50.7432C74.8526 50.7432 73.9296 50.5893 72.9296 50.5893ZM60.7376 44.9739H68.8528C69.8528 44.9739 70.5835 44.9739 71.045 44.9355C71.3527 44.897 71.6604 44.8201 71.9296 44.6278V44.2432C71.9296 43.7432 71.8527 43.2816 71.6988 42.8201C71.0066 40.6662 68.9682 39.2047 66.699 39.2816C64.5837 39.1662 62.5837 40.2816 61.5838 42.2047C61.1222 43.0893 60.853 44.0124 60.7376 44.9739Z" fill="#F8F8F8"/>
</svg>
