<svg width="34" height="32" viewBox="0 0 34 32" fill="none" xmlns="http://www.w3.org/2000/svg">
<path d="M24.1908 0.693054C21.2879 0.693054 18.5018 2.0444 16.6833 4.17987C14.8648 2.0444 12.0787 0.693054 9.17583 0.693054C4.03736 0.693054 0 4.73042 0 9.86889C0 16.1752 5.67233 21.3137 14.2642 29.1215L16.6833 31.307L19.1024 29.1048C27.6943 21.3137 33.3666 16.1752 33.3666 9.86889C33.3666 4.73042 29.3293 0.693054 24.1908 0.693054ZM16.8502 26.6356L16.6833 26.8025L16.5165 26.6356C8.57523 19.4451 3.33666 14.6904 3.33666 9.86889C3.33666 6.53222 5.83916 4.02972 9.17583 4.02972C11.7451 4.02972 14.2476 5.68137 15.1318 7.96699H18.2516C19.1191 5.68137 21.6216 4.02972 24.1908 4.02972C27.5275 4.02972 30.03 6.53222 30.03 9.86889C30.03 14.6904 24.7914 19.4451 16.8502 26.6356Z" fill="#F8F8F8"/>
</svg>
