<svg width="132" height="98" viewBox="0 0 132 98" fill="none" xmlns="http://www.w3.org/2000/svg">
<path d="M122.724 31.1663L96.6728 36.1089L118.388 21.2991C121.729 19.0234 122.919 14.632 121.16 10.9873C117.517 9.24501 113.128 10.4184 110.853 13.7608L95.7666 35.8955L100.813 9.26279C101.56 5.28032 99.3028 1.35119 95.4822 0C91.6616 1.35119 89.4048 5.28032 90.1512 9.26279L95.269 36.2867L95.2157 36.2689L79.88 13.7431C77.6054 10.4006 73.2162 9.20945 69.5733 10.9696C67.8318 14.6142 69.0046 19.0056 72.3454 21.2813L93.9718 36.02L68.2583 31.1486C64.2778 30.4018 60.3505 32.6598 59 36.4822C60.3505 40.3047 64.2778 42.5626 68.2583 41.8159L95.0202 36.7489L95.0735 36.7845L72.3454 52.2698C69.0046 54.5455 67.814 58.9369 69.5733 62.5816C73.2162 64.3239 77.6054 63.1505 79.88 59.8081L95.1446 37.4067L90.1689 63.7372C89.4226 67.7197 91.6794 71.6488 95.5 73C99.3206 71.6488 101.577 67.7197 100.831 63.7372L95.9443 37.9045L110.871 59.8259C113.146 63.1683 117.535 64.3595 121.178 62.5994C122.919 58.9547 121.747 54.5633 118.406 52.2876L95.7488 36.8378L95.731 36.7667L95.7843 36.7311L122.742 41.8337C126.722 42.5804 130.649 40.3225 132 36.5C130.632 32.6775 126.687 30.4019 122.724 31.1663Z" fill="#1FB61F"/>
<path d="M40.1868 78.7974L22.3531 72.5124L40.1868 66.2275C42.8347 65.2959 44.4112 62.5509 43.8939 59.7686C41.7632 57.9303 38.6226 57.9303 36.4919 59.7811L22.1683 72.2019L25.6907 53.4713C26.208 50.689 24.6439 47.944 21.9959 47C19.3479 47.944 17.7838 50.689 18.3011 53.4713L21.8112 72.1895L7.49985 59.7686C5.36916 57.9179 2.22855 57.9179 0.0978679 59.7562C-0.419408 62.5385 1.15705 65.2835 3.80501 66.215L21.6387 72.5L3.80501 78.7849C1.15705 79.7165 -0.419408 82.4615 0.0978679 85.2438C2.22855 87.0821 5.36916 87.0821 7.49985 85.2314L21.8235 72.7981L18.3011 91.5287C17.7838 94.311 19.3479 97.056 21.9959 98C24.6439 97.056 26.208 94.311 25.6907 91.5287L22.1806 72.8105L36.5043 85.2438C38.6349 87.0945 41.7756 87.0945 43.9062 85.2562C44.4112 82.4739 42.8347 79.7289 40.1868 78.7974Z" fill="#1FB61F"/>
</svg>
