<svg width="25" height="29" viewBox="0 0 25 29" fill="none" xmlns="http://www.w3.org/2000/svg">
<path d="M22.7111 18.0289L12.6326 14.507L22.7111 10.9851C24.2075 10.463 25.0985 8.9248 24.8061 7.3657C23.602 6.33557 21.8271 6.33557 20.623 7.37266L12.5282 14.333L14.5188 3.83683C14.8111 2.27772 13.9272 0.739493 12.4307 0.21051C10.9343 0.739493 10.0503 2.27772 10.3426 3.83683L12.3263 14.326L4.23845 7.3657C3.03432 6.32861 1.25944 6.32861 0.0553089 7.35874C-0.237024 8.91784 0.653895 10.4561 2.15036 10.9781L12.2289 14.5L2.15036 18.0219C0.653895 18.5439 -0.237024 20.0822 0.0553089 21.6413C1.25944 22.6714 3.03432 22.6714 4.23845 21.6343L12.3333 14.667L10.3426 25.1632C10.0503 26.7223 10.9343 28.2605 12.4307 28.7895C13.9272 28.2605 14.8111 26.7223 14.5188 25.1632L12.5351 14.674L20.6299 21.6413C21.8341 22.6784 23.609 22.6784 24.8131 21.6482C25.0985 20.0891 24.2075 18.5509 22.7111 18.0289Z" fill="#1FB61F"/>
</svg>
