<svg width="66" height="91" viewBox="0 0 66 91" fill="none" xmlns="http://www.w3.org/2000/svg">
<path fill-rule="evenodd" clip-rule="evenodd" d="M18.7194 0.282471H47.2807C57.1267 0.282471 65.1418 8.20256 65.1418 17.7109C65.1418 23.2694 62.3996 28.2904 58.152 31.4957C62.3996 34.7051 65.1418 39.7219 65.1418 45.2846C65.1418 54.7888 57.1267 62.7088 47.2807 62.7088C43.2691 62.7088 39.5627 61.3978 36.5804 59.1975V72.8541C36.5804 82.3624 28.5694 90.2825 18.7194 90.2825C8.87348 90.2825 0.858398 82.3624 0.858398 72.8541C0.858398 67.2955 3.60056 62.2787 7.84815 59.0693C3.60056 55.8599 0.858398 50.8432 0.858398 45.2846C0.858398 39.7219 3.60056 34.7051 7.84815 31.4957C3.60056 28.2904 0.858398 23.2694 0.858398 17.7109C0.858398 8.20256 8.87348 0.282471 18.7194 0.282471ZM29.4197 62.7088H18.7194C12.9014 62.7088 8.01906 67.2376 8.01906 72.8541C8.01906 78.4747 12.9014 82.9993 18.7194 82.9993C24.5415 82.9993 29.4197 78.4747 29.4197 72.8541V62.7088ZM36.5804 45.2846C36.5804 39.664 41.4586 35.1352 47.2807 35.1352C53.0988 35.1352 57.9811 39.664 57.9811 45.2846C57.9811 50.9011 53.0988 55.4297 47.2807 55.4297C41.4586 55.4297 36.5804 50.9011 36.5804 45.2846ZM18.5851 35.1394C12.824 35.2056 8.01906 39.7095 8.01906 45.2846C8.01906 50.9011 12.9014 55.4297 18.7194 55.4297H29.4197V35.1352H18.7194L18.5851 35.1394ZM29.4197 27.8561V7.56563H18.7194C12.9014 7.56563 8.01906 12.0903 8.01906 17.7109C8.01906 23.3315 12.9014 27.8561 18.7194 27.8561H29.4197ZM36.5804 27.8561H47.2807C53.0988 27.8561 57.9811 23.3315 57.9811 17.7109C57.9811 12.0903 53.0988 7.56563 47.2807 7.56563H36.5804V27.8561Z" fill="#2C342C"/>
</svg>
