<svg width="25" height="34" viewBox="0 0 25 34" fill="none" xmlns="http://www.w3.org/2000/svg">
<path d="M11.0305 33.5C10.8566 33.4998 10.684 33.4693 10.5205 33.41C10.2051 33.2945 9.93762 33.0765 9.76084 32.791C9.58406 32.5054 9.50823 32.1688 9.5455 31.835L10.7005 21.2001H1.86554C1.59303 21.2005 1.32557 21.1266 1.09186 20.9865C0.858157 20.8463 0.667043 20.6452 0.539047 20.4046C0.41105 20.164 0.351007 19.8932 0.365365 19.621C0.379723 19.3489 0.467941 19.0858 0.620543 18.8601L12.4555 1.16014C12.6427 0.883151 12.917 0.676627 13.235 0.573359C13.5529 0.470091 13.8963 0.475999 14.2105 0.590145C14.5125 0.702289 14.7705 0.908721 14.9461 1.17888C15.1217 1.44903 15.2056 1.76856 15.1855 2.09014L14.0305 12.8001H22.8654C23.1379 12.7997 23.4054 12.8735 23.6391 13.0137C23.8728 13.1538 24.0639 13.355 24.1919 13.5955C24.3199 13.8361 24.38 14.107 24.3656 14.3791C24.3513 14.6512 24.263 14.9143 24.1104 15.1401L12.2755 32.84C12.1379 33.0436 11.9524 33.2102 11.7353 33.3253C11.5182 33.4404 11.2762 33.5004 11.0305 33.5ZM4.67052 18.2001H12.3655C12.5748 18.2006 12.7817 18.2449 12.9729 18.3301C13.164 18.4154 13.3352 18.5397 13.4755 18.6951C13.617 18.8526 13.7236 19.0382 13.7883 19.2399C13.8529 19.4416 13.8741 19.6546 13.8505 19.8651L13.1755 26.09L20.0605 15.8001H12.3655C12.1538 15.8014 11.9443 15.7578 11.7506 15.6724C11.557 15.5869 11.3836 15.4614 11.2419 15.3041C11.1003 15.1468 10.9935 14.9614 10.9286 14.7599C10.8637 14.5584 10.8422 14.3455 10.8655 14.1351L11.5405 7.91011L4.67052 18.2001Z" fill="#2C342C"/>
</svg>
