<svg width="34" height="34" viewBox="0 0 34 34" fill="none" xmlns="http://www.w3.org/2000/svg">
<path d="M6.67333 22.0043C5.28861 22.0043 4.03736 22.5716 3.13647 23.4725C1.16783 25.4411 0 33.6827 0 33.6827C0 33.6827 8.24156 32.5148 10.2102 30.5462C11.1111 29.6453 11.6783 28.394 11.6783 27.0093C11.6783 24.2399 9.44276 22.0043 6.67333 22.0043ZM7.85785 28.1938C7.39071 28.661 4.23756 29.4618 4.23756 29.4618C4.23756 29.4618 5.02168 26.3253 5.5055 25.8415C5.78911 25.5245 6.2062 25.341 6.67333 25.341C7.59091 25.341 8.34166 26.0917 8.34166 27.0093C8.34166 27.4765 8.15814 27.8935 7.85785 28.1938ZM25.7257 19.7521C36.3363 9.14147 32.7994 0.88322 32.7994 0.88322C32.7994 0.88322 24.5412 -2.65365 13.9306 7.95695L9.77643 7.12279C8.69201 6.9059 7.55755 7.25625 6.75675 8.04037L0 14.8138L8.34166 18.384L15.2986 25.341L18.8688 33.6827L25.6256 26.9259C26.4097 26.1418 26.76 25.0073 26.5432 23.9062L25.7257 19.7521ZM9.02568 15.0474L5.83916 13.6793L9.12578 10.3927L11.5282 10.8765C10.5772 12.2613 9.72638 13.7127 9.02568 15.0474ZM20.0033 27.8435L18.6353 24.657C19.9699 23.9563 21.4214 23.1054 22.7894 22.1545L23.2732 24.5569L20.0033 27.8435ZM23.3567 17.3997C21.1545 19.6019 17.7177 21.4037 16.6166 21.9543L11.7284 17.0661C12.2622 15.9816 14.064 12.5449 16.2829 10.326C24.0907 2.51819 30.0133 3.66934 30.0133 3.66934C30.0133 3.66934 31.1644 9.59192 23.3567 17.3997ZM21.6883 15.331C23.5235 15.331 25.025 13.8295 25.025 11.9943C25.025 10.1592 23.5235 8.65765 21.6883 8.65765C19.8532 8.65765 18.3517 10.1592 18.3517 11.9943C18.3517 13.8295 19.8532 15.331 21.6883 15.331Z" fill="#2C342C"/>
</svg>
