<svg width="94" height="99" viewBox="0 0 94 99" fill="none" xmlns="http://www.w3.org/2000/svg">
<path d="M4.5 64.2825C19.5 69.2825 9.5 89.2825 34.5 79.2825M82 4.28247L82.3501 5.04779C83.0381 6.63541 84.5 10.4589 84.5 14.2825C84.5 17.0591 83.9218 19.8358 82.7653 22.6125C87.0175 27.3798 89.5 33.1137 89.5 39.2825C89.5 52.6946 77.7648 64.0511 61.5752 67.8913C63.414 70.3735 64.5 73.4511 64.5 76.7825V94.2825H34.5V76.7825C34.5 73.4511 35.586 70.3735 37.4232 67.8841C21.2352 64.0511 9.5 52.6946 9.5 39.2825C9.5 33.1137 11.9825 27.3798 16.2391 22.6121C15.0782 19.8358 14.5 17.0591 14.5 14.2825C14.5 9.28247 17 4.28247 17 4.28247C21.922 4.28247 27.6516 6.70509 34.1887 11.5503C38.9084 10.0915 44.0783 9.28247 49.5 9.28247C54.9217 9.28247 60.0916 10.0915 64.8065 11.5573C71.3462 6.70604 77.077 4.28247 82 4.28247Z" stroke="#2C342C" stroke-width="8" stroke-linecap="round" stroke-linejoin="round"/>
</svg>
