<svg width="34" height="34" viewBox="0 0 34 34" fill="none" xmlns="http://www.w3.org/2000/svg">
<path fill-rule="evenodd" clip-rule="evenodd" d="M16.8713 0.5C7.77775 0.5 0.36377 7.90348 0.36377 16.9955C0.36377 26.0875 7.77925 33.5 16.8713 33.5C25.9633 33.5 33.3638 26.0875 33.3638 16.9955C33.3638 7.90348 25.9633 0.5 16.8713 0.5ZM16.8713 3.49918C18.6443 3.49622 20.4005 3.84331 22.0391 4.52055C23.6778 5.19779 25.1666 6.19186 26.4202 7.44573C27.6738 8.69961 28.6675 10.1886 29.3444 11.8274C30.0212 13.4662 30.3679 15.2224 30.3646 16.9955C30.3681 18.769 30.0216 20.5258 29.3449 22.1652C28.6682 23.8046 27.6747 25.2942 26.4211 26.5489C25.1676 27.8035 23.6788 28.7984 22.04 29.4766C20.4013 30.1547 18.6448 30.5028 16.8713 30.5008C15.097 30.503 13.3397 30.1552 11.7 29.4773C10.0603 28.7994 8.57042 27.8047 7.31567 26.5502C6.06091 25.2957 5.06592 23.8061 4.38765 22.1666C3.70939 20.527 3.36118 18.7698 3.36295 16.9955C3.36295 9.52454 9.4003 3.49918 16.8713 3.49918ZM16.8473 6.47737C16.6491 6.47931 16.4532 6.52053 16.271 6.59865C16.0888 6.67676 15.9239 6.79022 15.7859 6.93246C15.6478 7.0747 15.5393 7.2429 15.4667 7.42733C15.3941 7.61177 15.3587 7.80877 15.3627 8.00695V16.9955C15.3635 17.1928 15.4033 17.3881 15.4797 17.57C15.5561 17.7519 15.6677 17.917 15.8081 18.0557L21.8064 24.0571C21.9452 24.1999 22.111 24.3136 22.2941 24.3916C22.4773 24.4696 22.6742 24.5104 22.8733 24.5116C23.0723 24.5127 23.2697 24.4742 23.4537 24.3983C23.6378 24.3223 23.8048 24.2105 23.9452 24.0694C24.0856 23.9282 24.1965 23.7605 24.2714 23.576C24.3462 23.3915 24.3836 23.194 24.3814 22.9949C24.3791 22.7958 24.3372 22.5992 24.2581 22.4165C24.1791 22.2337 24.0644 22.0686 23.9208 21.9307L18.3649 16.3747V8.00695C18.3689 7.80599 18.3325 7.60627 18.2578 7.41966C18.1831 7.23304 18.0717 7.06335 17.9301 6.92066C17.7885 6.77797 17.6197 6.6652 17.4337 6.58905C17.2477 6.5129 17.0483 6.47492 16.8473 6.47737Z" fill="#F8F8F8"/>
</svg>
