<svg width="64" height="90" viewBox="0 0 64 90" fill="none" xmlns="http://www.w3.org/2000/svg">
<g clip-path="url(#clip0_357_526)">
<path d="M63.8835 17.6425L58.0738 82.5522L31.9584 89.7726L5.9151 82.5621L0.111328 17.6425H63.8835Z" fill="#2C342C"/>
<path d="M31.9971 84.2535L53.0996 78.4189L58.0642 22.9505H31.9971V84.2535Z" fill="#2C342C"/>
<path d="M20.7035 38.875H31.9976V30.9129H11.9785L12.1695 33.049L14.1318 54.9905H31.9976V47.0284H21.4332L20.7035 38.875ZM22.5029 58.9717H14.4886L15.607 71.4735L31.9609 76.0009L31.9976 75.9909V67.7069L31.9626 67.7162L23.0713 65.3218L22.5029 58.9717Z" fill="#EBEBEB"/>
<path d="M6.04492 0H10.1021V3.99765H13.8135V0H17.8709V12.1059H13.8138V8.05213H10.1023V12.1059H6.04517L6.04492 0ZM23.206 4.0146H19.6348V0H30.8374V4.0146H27.2639V12.1059H23.2068V4.0146H23.206ZM32.6152 0H36.8456L39.4479 4.25368L42.0477 0H46.2798V12.1059H42.2392V6.10554L39.4479 10.4098H39.3779L36.5849 6.10554V12.1059H32.6152V0ZM48.2989 0H52.3573V8.10449H58.0629V12.1059H48.2987V0H48.2989Z" fill="#2C342C"/>
<path d="M31.97 54.9905H41.8009L40.874 65.3168L31.9697 67.7137V75.9972L48.3366 71.4735L48.4566 70.1282L50.333 49.1664L50.5277 47.0284H31.97V54.9905ZM31.97 38.8556V38.875H51.2541L51.4141 37.0855L51.7781 33.049L51.9688 30.9129H31.97V38.8556Z" fill="white"/>
</g>
<defs>
<clipPath id="clip0_357_526">
<rect width="64" height="90" fill="white"/>
</clipPath>
</defs>
</svg>
