<svg width="35" height="34" viewBox="0 0 35 34" fill="none" xmlns="http://www.w3.org/2000/svg">
<path d="M0 3.88484C0 2.75878 0.394155 1.82979 1.18243 1.09789C1.97071 0.365952 2.99551 0 4.25676 0C5.49551 0 6.49774 0.36031 7.26351 1.081C8.05179 1.82419 8.44595 2.79256 8.44595 3.98618C8.44595 5.06718 8.06307 5.96799 7.2973 6.68868C6.50902 7.43186 5.47297 7.80346 4.18919 7.80346H4.15541C2.91666 7.80346 1.91443 7.43186 1.14865 6.68868C0.382872 5.94549 0 5.01087 0 3.88484ZM0.439189 33.4434V10.8775H7.93919V33.4434H0.439189ZM12.0946 33.4434H19.5946V20.843C19.5946 20.0548 19.6847 19.4467 19.8649 19.0188C20.1802 18.2531 20.6588 17.6056 21.3007 17.0764C21.9426 16.5471 22.7477 16.2825 23.7162 16.2825C26.2387 16.2825 27.5 17.9828 27.5 21.3835V33.4434H35V20.5052C35 17.1721 34.2117 14.6442 32.6351 12.9213C31.0585 11.1985 28.9752 10.337 26.3851 10.337C23.4797 10.337 21.2162 11.587 19.5946 14.0868V14.1543H19.5608L19.5946 14.0868V10.8775H12.0946C12.1396 11.5982 12.1622 13.839 12.1622 17.6C12.1622 21.361 12.1396 26.6421 12.0946 33.4434Z" fill="#2C342C"/>
</svg>
