<svg width="88" height="91" viewBox="0 0 88 91" fill="none" xmlns="http://www.w3.org/2000/svg">
<path fill-rule="evenodd" clip-rule="evenodd" d="M56.2336 0.487072L6.06244 4.16503C2.01862 4.51302 0.608398 7.13799 0.608398 10.285V64.8783C0.608398 67.3293 1.48828 69.4263 3.60059 72.2282L15.3946 87.4501C17.3321 89.901 19.0919 90.426 22.7922 90.252L81.054 86.7511C85.9807 86.4031 87.3909 84.1261 87.3909 80.2772V18.8619C87.3909 16.8699 86.5985 16.2969 84.2662 14.6019C84.1334 14.5051 84.0008 14.4081 83.8684 14.3109L67.8528 3.11204C63.9808 0.316074 62.3958 -0.0379221 56.2336 0.487072ZM24.112 17.8539C19.354 18.1719 18.2753 18.2439 15.5724 16.0629L8.70208 10.639C8.00299 9.93696 8.35555 9.06097 10.1123 8.88697L58.3459 5.38901C62.3927 5.03802 64.5051 6.439 66.0901 7.66299L74.3645 13.6119C74.7171 13.7889 75.5939 14.8359 74.5393 14.8359L24.7267 17.8119L24.112 17.8539ZM18.5646 79.7522V27.6128C18.5646 25.3358 19.2666 24.2858 21.379 24.1088L78.5861 20.7848C80.5267 20.6108 81.4066 21.8348 81.4066 24.1088V75.9002C81.4066 78.1772 81.054 80.1032 77.881 80.2772L23.1387 83.4271C19.9718 83.6011 18.5646 82.5541 18.5646 79.7522ZM72.6078 30.4087C72.9573 31.9837 72.6078 33.5587 71.0198 33.7387L68.3801 34.2577V72.7532C66.0901 73.9772 63.9808 74.6762 62.221 74.6762C59.4036 74.6762 58.6955 73.8002 56.5862 71.1783L39.3321 44.2326V70.3023L44.7922 71.5293C44.7922 71.5293 44.7922 74.6792 40.3867 74.6792L28.2432 75.3782C27.8937 74.6762 28.2432 72.9302 29.4787 72.5792L32.6426 71.7062V37.2366L28.2432 36.8827C27.8937 35.3077 28.7705 33.0337 31.2384 32.8597L44.2648 31.9837L62.221 59.2834V35.1337L57.6408 34.6117C57.2913 32.6827 58.6955 31.2847 60.4582 31.1107L72.6078 30.4087Z" fill="#2C342C"/>
</svg>
