<svg width="23" height="32" viewBox="0 0 23 32" fill="none" xmlns="http://www.w3.org/2000/svg">
<path d="M11.2333 9.60007C11.6575 9.60035 12.0644 9.76902 12.3643 10.069C12.6643 10.369 12.833 10.7758 12.8333 11.2001C12.8333 11.6244 13.0019 12.0314 13.3019 12.3315C13.602 12.6315 14.009 12.8001 14.4333 12.8001C14.8577 12.8001 15.2646 12.6315 15.5647 12.3315C15.8647 12.0314 16.0333 11.6244 16.0333 11.2001C16.0329 10.4013 15.8331 9.61531 15.4521 8.91329C15.071 8.21128 14.5208 7.61546 13.8513 7.17987C13.1818 6.74428 12.4141 6.48268 11.6179 6.4188C10.8217 6.35492 10.0222 6.49077 9.29175 6.81404C8.56134 7.13731 7.92316 7.63777 7.43507 8.27006C6.94699 8.90234 6.62443 9.64645 6.49666 10.4349C6.36888 11.2234 6.43992 12.0313 6.70333 12.7853C6.96674 13.5394 7.4142 14.2158 8.00513 14.7532C8.02113 14.7678 8.26294 15.0251 8.31451 15.097C8.49567 15.3604 8.59266 15.6726 8.59266 15.9923C8.59266 16.312 8.49567 16.6242 8.31451 16.8876C8.1957 17.0608 8.11217 17.2557 8.06868 17.4612C8.0252 17.6666 8.0226 17.8786 8.06105 18.0851C8.0995 18.2916 8.17824 18.4884 8.29278 18.6645C8.40731 18.8405 8.5554 18.9923 8.72858 19.1111C8.90176 19.2299 9.09665 19.3134 9.30211 19.3569C9.50758 19.4004 9.71959 19.403 9.92606 19.3645C10.1325 19.3261 10.3294 19.2474 10.5054 19.1328C10.6815 19.0183 10.8332 18.8702 10.952 18.697C11.5009 17.8992 11.7941 16.9532 11.7927 15.9848C11.7913 15.0164 11.4954 14.0714 10.9442 13.2751C10.6979 12.9648 10.4356 12.6675 10.1583 12.3845C10.0631 12.2976 9.97815 12.2 9.90515 12.0938C9.74339 11.8529 9.65013 11.5726 9.63535 11.2828C9.62056 10.993 9.6848 10.7047 9.8212 10.4486C9.9576 10.1925 10.161 9.97823 10.4097 9.82878C10.6585 9.67933 10.9431 9.60028 11.2333 9.60007ZM11.2333 0C9.5154 0.000147185 7.82057 0.395428 6.27986 1.15527C4.73916 1.91512 3.39388 3.01916 2.34806 4.38202C1.30224 5.74488 0.583904 7.33003 0.248616 9.01488C-0.0866714 10.6997 -0.0299291 12.4391 0.414454 14.0985C0.525565 14.5069 0.79397 14.8546 1.1609 15.0655C1.52783 15.2765 1.96339 15.3334 2.3722 15.2239C2.78101 15.1143 3.12976 14.8473 3.3421 14.4812C3.55443 14.1151 3.61304 13.6797 3.5051 13.2705C3.21045 12.1705 3.15402 11.0203 3.33959 9.89674C3.52516 8.77319 3.94844 7.7022 4.58115 6.75538C5.21386 5.80855 6.04141 5.00771 7.00848 4.40639C7.97554 3.80507 9.05983 3.41714 10.1889 3.26852C11.3179 3.11989 12.4656 3.21401 13.5554 3.54458C14.6451 3.87515 15.6517 4.43455 16.5079 5.18538C17.3641 5.93621 18.0501 6.86117 18.5201 7.89842C18.9901 8.93567 19.2333 10.0613 19.2333 11.2001C19.2266 12.6449 18.8373 14.0623 18.1052 15.3079L12.4036 27.2002C12.1223 27.686 11.7183 28.0895 11.2322 28.3703C10.746 28.651 10.1947 28.7993 9.63327 28.8002C8.78805 28.789 7.9806 28.4483 7.38288 27.8506C6.78517 27.2529 6.44443 26.4454 6.43325 25.6002C6.43324 25.0388 6.58146 24.4874 6.86293 24.0018C7.07553 23.6342 7.1334 23.1972 7.02382 22.787C6.91423 22.3767 6.64617 22.0268 6.27859 21.8142C5.91102 21.6016 5.47404 21.5437 5.0638 21.6533C4.65355 21.7629 4.30364 22.031 4.09104 22.3986C3.66765 23.1306 3.39357 23.9393 3.28467 24.7779C3.17577 25.6166 3.2342 26.4685 3.45658 27.2844C3.67896 28.1003 4.06088 28.864 4.58026 29.5314C5.09964 30.1988 5.74616 30.7566 6.48246 31.1725C7.21875 31.5885 8.0302 31.8543 8.86989 31.9547C9.70957 32.0551 10.5608 31.9881 11.3744 31.7575C12.188 31.5268 12.9479 31.1372 13.61 30.6111C14.272 30.085 14.8233 29.4328 15.2317 28.6924L20.9334 16.8001C21.9162 15.0974 22.4335 13.166 22.4334 11.2C22.4332 9.23406 21.9156 7.30274 20.9326 5.60017C19.9496 3.8976 18.5357 2.48376 16.8332 1.50073C15.1306 0.517706 13.1993 0.000123533 11.2333 0Z" fill="#F8F8F8"/>
</svg>
