<svg width="27" height="34" viewBox="0 0 27 34" fill="none" xmlns="http://www.w3.org/2000/svg">
<path d="M13.2 15.1667C14.6504 15.1667 16.0683 14.7366 17.2742 13.9308C18.4802 13.125 19.4201 11.9797 19.9751 10.6397C20.5302 9.29969 20.6754 7.8252 20.3925 6.40267C20.1095 4.98015 19.4111 3.67347 18.3855 2.64789C17.3599 1.6223 16.0532 0.923869 14.6307 0.640911C13.2082 0.357953 11.7337 0.503177 10.3937 1.05822C9.05369 1.61326 7.90839 2.55319 7.10259 3.75915C6.29679 4.96511 5.8667 6.38294 5.8667 7.83334C5.8667 9.77826 6.63932 11.6435 8.01458 13.0188C9.38985 14.3941 11.2551 15.1667 13.2 15.1667ZM13.2 4.16667C13.9252 4.16667 14.6341 4.38172 15.2371 4.78461C15.8401 5.18751 16.3101 5.76017 16.5876 6.43016C16.8651 7.10016 16.9377 7.8374 16.7962 8.54867C16.6548 9.25993 16.3055 9.91327 15.7928 10.4261C15.28 10.9389 14.6266 11.2881 13.9154 11.4295C13.2041 11.571 12.4669 11.4984 11.7969 11.2209C11.1269 10.9434 10.5542 10.4734 10.1513 9.87043C9.74841 9.26745 9.53337 8.55853 9.53337 7.83334C9.53337 6.86088 9.91967 5.92824 10.6073 5.24061C11.2949 4.55298 12.2276 4.16667 13.2 4.16667ZM13.2 18.8333C9.79642 18.8333 6.53221 20.1854 4.12549 22.5921C1.71878 24.9988 0.366699 28.2631 0.366699 31.6667C0.366699 32.1529 0.559854 32.6192 0.90367 32.963C1.24749 33.3068 1.7138 33.5 2.20003 33.5C2.68626 33.5 3.15258 33.3068 3.49639 32.963C3.84021 32.6192 4.03337 32.1529 4.03337 31.6667C4.03337 29.2355 4.99914 26.9039 6.71822 25.1849C8.4373 23.4658 10.7689 22.5 13.2 22.5C15.6312 22.5 17.9628 23.4658 19.6818 25.1849C21.4009 26.9039 22.3667 29.2355 22.3667 31.6667C22.3667 32.1529 22.5598 32.6192 22.9037 32.963C23.2475 33.3068 23.7138 33.5 24.2 33.5C24.6863 33.5 25.1526 33.3068 25.4964 32.963C25.8402 32.6192 26.0334 32.1529 26.0334 31.6667C26.0334 28.2631 24.6813 24.9988 22.2746 22.5921C19.8678 20.1854 16.6036 18.8333 13.2 18.8333Z" fill="#1FB61F"/>
</svg>
