<svg width="90" height="90" viewBox="0 0 90 90" fill="none" xmlns="http://www.w3.org/2000/svg">
<path d="M44.9997 23.2305C21.2763 23.2305 2.04297 32.9773 2.04297 45C2.04297 57.0227 21.2763 66.7694 44.9997 66.7694C68.7231 66.7694 87.9564 57.0227 87.9564 45C87.9564 32.9773 68.7231 23.2305 44.9997 23.2305ZM33.8221 49.2412C32.797 50.2003 31.6586 50.5962 30.4049 51.004C29.1513 51.4125 27.5559 51.3281 25.6159 51.3281H21.2193L20.0008 58.3594H14.8673L19.4481 34.4531H29.32C32.29 34.4531 34.4563 35.3074 35.8183 36.8662C37.1802 38.4251 37.5895 40.6378 37.0466 43.4313C36.8223 44.5823 36.4448 45.6525 35.9118 46.6059C35.3781 47.5601 34.6813 48.4509 33.8221 49.2412ZM48.8064 51.3281L50.8321 41.1891C51.0627 40.0022 50.9784 39.1205 50.5783 38.6895C50.1775 38.2577 49.3253 37.9687 48.0224 37.9687H43.9513L41.328 51.3281H36.2345L40.8154 28.125H45.9088L44.691 34.4531H49.2283C52.0837 34.4531 54.0524 35.0262 55.1359 36.0218C56.2195 37.0174 56.5443 38.3815 56.1112 40.6118L53.98 51.3281H48.8064ZM77.1135 43.4686C76.8899 44.6196 76.5116 45.6715 75.9794 46.6242C75.4464 47.5784 74.7503 48.4509 73.8904 49.2412C72.8652 50.2003 71.7262 50.5962 70.4732 51.004C69.2202 51.4125 67.6234 51.3281 65.6835 51.3281H61.2869L60.0691 58.3594H54.9355L59.5157 34.4531H69.3883C72.3583 34.4531 74.5246 35.3074 75.8859 36.8662C77.2464 38.4251 77.6563 40.6758 77.1135 43.4686ZM67.4427 37.9687H63.9264L62.009 47.8125H65.1323C67.2009 47.8125 68.7435 47.6086 69.756 46.8281C70.7699 46.0491 71.4527 44.8397 71.8077 43.0165C72.148 41.265 71.9934 39.8988 71.3437 39.1788C70.6933 38.4588 69.3932 37.9687 67.4427 37.9687ZM27.3752 37.9687H23.8581L21.9407 47.8125H25.0633C27.1326 47.8125 28.6745 47.6086 29.6877 46.8281C30.7009 46.0491 31.3844 44.8397 31.7388 43.0165C32.0791 41.265 31.9244 39.8988 31.2747 39.1788C30.625 38.4588 29.3256 37.9687 27.3752 37.9687Z" fill="#2C342C"/>
</svg>
