<svg width="34" height="34" viewBox="0 0 34 34" fill="none" xmlns="http://www.w3.org/2000/svg">
<path d="M32.2932 1.57234C31.787 1.06507 31.1427 0.717948 30.4406 0.574212C29.7385 0.430476 29.0096 0.496479 28.3448 0.764001C20.2083 4.03211 14.0945 9.46922 9.111 17.8763C8.93511 18.1859 8.80629 18.52 8.72877 18.8676C6.20499 19.2608 3.97382 20.519 2.43395 22.5124C0.758745 24.6796 0.0656194 27.4411 0.484421 30.2922L0.879447 32.9861L3.57331 33.383C4.10916 33.4616 4.65049 33.5 5.18268 33.5C10.1991 33.5 14.2335 30.0088 14.998 25.1532C15.3474 25.0699 15.6826 24.9356 15.9929 24.7546C24.4018 19.7655 29.8389 13.6554 33.1015 5.52078C33.3676 4.85569 33.4329 4.12718 33.2892 3.4254C33.1455 2.72361 32.7992 2.07936 32.2932 1.57234ZM5.18268 29.8423C4.83154 29.8423 4.47126 29.8131 4.10367 29.7619C3.53856 25.914 6.03308 22.794 9.59015 22.4082L11.4574 24.2754C11.1062 27.4941 8.52211 29.8423 5.18268 29.8423ZM14.1256 21.609L12.2584 19.7417C12.9534 18.5695 13.6739 17.4868 14.4128 16.4425C14.4621 16.5175 17.4102 19.4656 17.4102 19.4656C16.3714 20.1989 15.2924 20.9177 14.1256 21.609ZM18.8952 18.3665C18.8952 18.3665 15.5649 15.0727 15.4589 15.0307C19.3853 9.93923 23.9647 6.46263 29.7072 4.16196C27.4121 9.8807 23.9574 14.4455 18.8952 18.3665Z" fill="#F8F8F8"/>
</svg>
