<svg width="94" height="91" viewBox="0 0 94 91" fill="none" xmlns="http://www.w3.org/2000/svg">
<path d="M77.2577 0.282471H16.7423C7.74415 0.282471 0.449707 7.57714 0.449707 16.5756V73.9894C0.449707 82.9878 7.74415 90.2825 16.7423 90.2825H77.2577C86.2559 90.2825 93.5503 82.9878 93.5503 73.9894V16.5756C93.5503 7.57714 86.2559 0.282471 77.2577 0.282471Z" fill="#2C342C"/>
<path d="M20.618 66.5706V24.3326C20.6103 24.2738 20.6163 24.2139 20.6355 24.1578C20.6546 24.1016 20.6864 24.0505 20.7284 24.0086C20.7703 23.9666 20.8214 23.9348 20.8776 23.9157C20.9337 23.8965 20.9936 23.8905 21.0524 23.8982C24.1984 23.8167 27.9108 23.5568 32.7521 23.5568C38.4622 23.5568 42.6518 24.7477 45.3206 27.3119C46.6172 28.5251 47.6438 29.9977 48.3335 31.6339C49.0233 33.2701 49.3607 35.0332 49.324 36.8085C49.324 41.4869 47.6689 44.9628 44.3586 47.2361C41.0484 49.5094 36.8847 50.6473 31.8676 50.6499L28.3763 50.7119V66.5085C28.3861 66.576 28.38 66.6448 28.3585 66.7095C28.337 66.7742 28.3007 66.833 28.2525 66.8812C28.2042 66.9294 28.1455 66.9657 28.0808 66.9872C28.0161 67.0087 27.9473 67.0148 27.8798 67.0051H21.1145C20.7848 67.0051 20.618 66.8615 20.618 66.5706ZM28.3763 29.6163V44.893C28.3763 44.893 30.1452 44.8232 32.2555 44.8232C35.0304 44.8232 37.2752 44.2128 38.9898 42.9921C40.7044 41.7714 41.563 39.7723 41.5656 36.9947C41.5656 34.5533 40.8104 32.6706 39.3001 31.3464C37.7898 30.0223 35.6071 29.3654 32.7521 29.3757C32.0499 29.3757 31.3556 29.3757 30.6728 29.4068C29.9901 29.4378 29.4315 29.4378 28.997 29.4378C28.5625 29.4378 28.3298 29.4223 28.3763 29.6163ZM55.1428 35.9706H61.7374C61.8963 35.9652 62.0524 36.0131 62.181 36.1066C62.3096 36.2 62.4033 36.3337 62.4473 36.4865C62.9414 37.5431 63.2272 38.6851 63.2891 39.8499C65.7795 36.6301 68.8441 35.1947 72.925 35.1947C72.9865 35.1837 73.0498 35.1878 73.1094 35.2065C73.169 35.2253 73.2232 35.2581 73.2674 35.3023C73.3116 35.3465 73.3444 35.4007 73.3631 35.4603C73.3819 35.5199 73.3859 35.5832 73.375 35.6447V42.4956C73.375 42.8408 73.2043 42.9882 72.859 42.9456C69.1234 42.7322 66.1597 43.221 64.0145 45.3663C63.7986 45.5471 63.6226 45.7708 63.4977 46.0232C63.3729 46.2757 63.3018 46.5513 63.2891 46.8326V66.555C63.2891 66.8538 63.1184 67.0051 62.7731 67.0051H56.1087C55.7208 67.0051 55.5307 66.8344 55.5307 66.4891V44.5051C55.5307 39.299 55.1428 38.5581 54.7548 36.4206C54.7122 36.1219 54.8402 35.9706 55.1428 35.9706Z" fill="#F8F8F8"/>
</svg>
