<svg width="90" height="91" viewBox="0 0 90 91" fill="none" xmlns="http://www.w3.org/2000/svg">
<path d="M78.7491 0.282471H11.2515C8.26796 0.282471 5.40659 1.46774 3.29688 3.57752C1.18717 5.6873 0.00195313 8.54879 0.00195312 11.5325L0.00195313 79.0325C0.00195313 82.0162 1.18717 84.8776 3.29688 86.9874C5.40659 89.0972 8.26796 90.2825 11.2515 90.2825H78.7491C81.7326 90.2825 84.594 89.0972 86.7037 86.9874C88.8134 84.8776 89.9987 82.0162 89.9987 79.0325V11.5325C89.9987 8.54879 88.8134 5.6873 86.7037 3.57752C84.594 1.46774 81.7326 0.282471 78.7491 0.282471Z" fill="#2C342C"/>
<path d="M39.3759 67.7817C39.3759 69.2735 38.7833 70.7043 37.7284 71.7591C36.6736 72.814 35.2429 73.4067 33.7511 73.4067H16.8767C15.385 73.4067 13.9543 72.814 12.8994 71.7591C11.8446 70.7043 11.252 69.2735 11.252 67.7817V17.1567C11.252 15.6648 11.8446 14.2341 12.8994 13.1792C13.9543 12.1243 15.385 11.5317 16.8767 11.5317H33.7511C35.2429 11.5317 36.6736 12.1243 37.7284 13.1792C38.7833 14.2341 39.3759 15.6648 39.3759 17.1567V67.7817ZM78.7495 45.2817C78.7495 46.7735 78.1568 48.2043 77.102 49.2591C76.0471 50.314 74.6164 50.9067 73.1247 50.9067H56.2503C54.7585 50.9067 53.3278 50.314 52.273 49.2591C51.2181 48.2043 50.6255 46.7735 50.6255 45.2817V17.1567C50.6255 15.6648 51.2181 14.2341 52.273 13.1792C53.3278 12.1243 54.7585 11.5317 56.2503 11.5317H73.1247C74.6164 11.5317 76.0471 12.1243 77.102 13.1792C78.1568 14.2341 78.7495 15.6648 78.7495 17.1567V45.2817Z" fill="#F8F8F8"/>
</svg>
