<svg width="90" height="91" viewBox="0 0 90 91" fill="none" xmlns="http://www.w3.org/2000/svg">
<path d="M86.8033 9.78954L68.264 0.735269C67.5773 0.453963 66.8454 0.300567 66.1041 0.282556H65.7441C64.5747 0.275903 63.4358 0.657837 62.5043 1.36907L61.8743 1.91232L26.4157 34.4624L10.9813 22.9182C10.2861 22.3831 9.42603 22.1107 8.55144 22.1486C7.69465 22.1388 6.8578 22.4088 6.16654 22.9182L1.21674 27.4454C0.828644 27.7906 0.519189 28.2161 0.309509 28.6926C0.0998293 29.1692 -0.00513461 29.6858 0.00178612 30.2069C-7.6103e-05 30.7339 0.106964 31.2556 0.316114 31.7388C0.525265 32.2219 0.831959 32.6561 1.21674 33.0137L14.7162 45.2823L1.21674 57.5961C0.836516 57.952 0.533267 58.3829 0.325911 58.8619C0.118554 59.3409 0.0115372 59.8578 0.0115372 60.3803C0.0115372 60.9027 0.118554 61.4196 0.325911 61.8986C0.533267 62.3777 0.836516 62.8086 1.21674 63.1644L6.16654 67.6916C6.91291 68.3484 7.87494 68.7033 8.86643 68.6875C9.628 68.63 10.3594 68.3638 10.9813 67.9179L26.4157 56.1021L61.8743 88.6522C62.7815 89.5927 63.9961 90.1715 65.2942 90.282H66.0591C66.8282 90.2934 67.5873 90.1064 68.264 89.7387L86.8033 80.6844C87.7414 80.2327 88.5366 79.5281 89.1006 78.649C89.6646 77.7699 89.9753 76.7507 89.9982 75.7046V14.9052C89.9951 13.8371 89.694 12.7913 89.1292 11.8869C88.5644 10.9825 87.7585 10.2558 86.8033 9.78954ZM67.4991 65.7902L40.5002 45.2823L67.4991 24.7743V65.7902Z" fill="#2C342C"/>
</svg>
